{"accessors" : [{"bufferView" : 0, "byteOffset" : 0, "componentType" : 5123, "count" : 312, "type" : "SCALAR", "max" : [311], "min" : [0]}, {"bufferView" : 1, "byteOffset" : 0, "componentType" : 5126, "count" : 312, "type" : "VEC3", "max" : [122.88447570800781, 118.40760040283203, 50], "min" : [-52.10282897949219, -49.99997329711914, -50.00001525878906], "name" : "POSITION"}, {"bufferView" : 1, "byteOffset" : 12, "componentType" : 5126, "count" : 312, "type" : "VEC3", "max" : [1.0000044107437134, 1.0000044107437134, 1.0000044107437134], "min" : [-1.0000044107437134, -1.0000044107437134, -1.0000044107437134], "name" : "NORMAL"}, {"bufferView" : 1, "byteOffset" : 24, "componentType" : 5126, "count" : 312, "type" : "VEC2", "max" : [0.9757183790206909, 0.9767307639122009], "min" : [0.0235978364944458, 0.014841616153717041], "name" : "TEXCOORD_0"}], "asset" : {"generator" : "Aspose.3D 24.6.0", "version" : "2.0"}, "buffers" : [{"uri" : "data:application/octet-stream;base64,", "byteLength" : 10616}], "bufferViews" : [{"buffer" : 0, "byteOffset" : 0, "byteLength" : 624, "target" : 34963}, {"buffer" : 0, "byteOffset" : 628, "byteLength" : 9984, "byteStride" : 32, "target" : 34962}], "images" : [{"uri" : "C:/Users/morrg/Documents/Spelprojekt/Queertective 2024/building3_texture.png"}], "materials" : [{"name" : "building3_material", "pbrMetallicRoughness" : {"baseColorFactor" : [1, 1, 1, 1], "baseColorTexture" : {"index" : 0, "texCoord" : 0}, "metallicFactor" : 1, "roughnessFactor" : 1}, "emissiveFactor" : [0, 0, 0], "alphaMode" : "OPAQUE", "doubleSided" : false}], "meshes" : [{"primitives" : [{"attributes" : {"POSITION" : 1, "NORMAL" : 2, "TEXCOORD_0" : 3}, "indices" : 0, "material" : 0, "mode" : 4}], "name" : ""}], "nodes" : [{"matrix" : [0.009333333310373905, 0, 0, 0, 0, 0.005111110942741915, 0, 0, 0, 0, 0.0004082402254340897, 0, -0.3131547272764829, 0.23500281722252234, -0.06847426199920717, 1], "mesh" : 0, "name" : "building3"}], "samplers" : [{"magFilter" : 9729, "minFilter" : 9729, "wrapS" : 10497, "wrapT" : 10497}], "scene" : 0, "scenes" : [{"nodes" : [0]}], "textures" : [{"sampler" : 0, "source" : 0, "name" : "file4"}]}