# This file uses meters as units for non-parametric coordinates.

mtllib building1.mtl
g default
v -74.197981 -5.633598 5.890859
v 74.104684 -5.633598 5.890859
v -74.197981 90.607960 5.890859
v 74.104684 90.607960 5.890859
v -74.197981 90.607960 -5.836273
v 74.104684 90.607960 -5.836273
v -74.197981 -5.633598 -5.836273
v 74.104684 -5.633598 -5.836273
v 9.453676 90.607960 5.890859
v 9.453676 90.607960 -5.836273
v 9.453676 -5.633598 -5.836273
v 9.453676 -5.633598 5.890859
v 9.453676 123.547968 5.890859
v 74.104684 112.581442 5.890859
v 74.104684 112.581442 -5.836273
v 9.453676 123.547968 -5.836273
vt 0.169761 0.028743
vt 0.217715 0.028743
vt 0.225637 0.427961
vt 0.169761 0.427961
vt 0.225637 0.519109
vt 0.169761 0.519109
vt 0.187173 0.523916
vt 0.235127 0.523916
vt 0.227204 0.923134
vt 0.179251 0.923134
vt 0.255856 0.352679
vt 0.652787 0.352679
vt 0.652787 0.805525
vt 0.255856 0.805525
vt 0.971624 0.352679
vt 0.971624 0.805525
vt 0.971624 0.903845
vt 0.652787 0.958846
vt 0.697841 0.243973
vt 0.506209 0.243909
vt 0.506282 0.024084
vt 0.698058 0.023597
vt 0.358760 0.243860
vt 0.358722 0.024459
vt 0.506184 0.333064
vt 0.358768 0.307899
vt 0.021041 0.373545
vt 0.081870 0.373008
vt 0.081870 0.594203
vt 0.021041 0.594823
vt 0.081870 0.031197
vt 0.021041 0.031534
vt 0.151161 0.028764
vt 0.151544 0.374453
vt 0.099378 0.374511
vt 0.098995 0.028822
vt 0.151840 0.641621
vt 0.099674 0.641679
vt 0.151737 0.651863
vt 0.152034 0.919032
vt 0.099868 0.919089
vt 0.099572 0.651920
vn 0.000000 0.000000 1.000000
vn 0.000000 0.000000 1.000000
vn 0.000000 0.000000 1.000000
vn 0.000000 0.000000 1.000000
vn 0.000000 1.000000 0.000000
vn 0.000000 1.000000 0.000000
vn 0.000000 1.000000 0.000000
vn 0.000000 1.000000 0.000000
vn 0.000000 0.000000 -1.000000
vn 0.000000 0.000000 -1.000000
vn 0.000000 0.000000 -1.000000
vn 0.000000 0.000000 -1.000000
vn 0.000000 -1.000000 0.000000
vn 0.000000 -1.000000 0.000000
vn 0.000000 -1.000000 0.000000
vn 0.000000 -1.000000 0.000000
vn 1.000000 0.000000 0.000000
vn 1.000000 0.000000 0.000000
vn 1.000000 0.000000 0.000000
vn 1.000000 0.000000 0.000000
vn -1.000000 0.000000 0.000000
vn -1.000000 0.000000 0.000000
vn -1.000000 0.000000 0.000000
vn -1.000000 0.000000 0.000000
vn 0.167238 0.985917 0.000000
vn 0.167238 0.985917 0.000000
vn 0.167238 0.985917 0.000000
vn 0.167238 0.985917 0.000000
vn 0.000000 0.000000 -1.000000
vn 0.000000 0.000000 -1.000000
vn 0.000000 -1.000000 0.000000
vn 0.000000 -1.000000 0.000000
vn 0.000000 0.000000 1.000000
vn 0.000000 0.000000 1.000000
vn 0.000000 0.000000 1.000000
vn 0.000000 0.000000 1.000000
vn 0.000000 0.000000 1.000000
vn 0.000000 0.000000 1.000000
vn 1.000000 0.000000 0.000000
vn 1.000000 0.000000 0.000000
vn 1.000000 0.000000 0.000000
vn 1.000000 0.000000 0.000000
vn -0.000000 0.000000 -1.000000
vn -0.000000 0.000000 -1.000000
vn -0.000000 0.000000 -1.000000
vn -0.000000 0.000000 -1.000000
vn -1.000000 0.000000 0.000000
vn -1.000000 0.000000 0.000000
vn -1.000000 0.000000 0.000000
vn -1.000000 0.000000 0.000000
s 1
g building1
usemtl lambert3SG
f 1/11/1 12/12/2 9/13/3 3/14/4
s off
f 3/31/5 9/28/6 10/27/7 5/32/8
s 2
f 5/19/9 10/20/10 11/21/11 7/22/12
s 3
f 7/33/13 11/34/14 12/35/15 1/36/16
s off
f 2/1/17 8/2/18 6/3/19 4/4/20
f 7/7/21 1/8/22 3/9/23 5/10/24
f 13/39/25 14/40/26 15/41/27 16/42/28
s 2
f 11/21/11 10/20/10 6/23/29 8/24/30
s 3
f 12/35/15 11/34/14 8/37/31 2/38/32
s 1
f 9/13/3 12/12/2 2/15/33 4/16/34
s off
f 9/13/35 4/16/36 14/17/37 13/18/38
f 4/4/39 6/3/40 15/5/41 14/6/42
f 6/23/43 10/20/44 16/25/45 15/26/46
f 10/27/47 9/28/48 13/29/49 16/30/50
