{"accessors" : [{"bufferView" : 0, "byteOffset" : 0, "componentType" : 5123, "count" : 900, "type" : "SCALAR", "max" : [899], "min" : [0]}, {"bufferView" : 1, "byteOffset" : 0, "componentType" : 5126, "count" : 900, "type" : "VEC3", "max" : [19.10552215576172, 26.505130767822266, 82.6097183227539], "min" : [-18.439287185668945, 0.5009708404541016, 70.2217025756836], "name" : "POSITION"}, {"bufferView" : 1, "byteOffset" : 12, "componentType" : 5126, "count" : 900, "type" : "VEC3", "max" : [1.0000044107437134, 1.0000044107437134, 1.0000044107437134], "min" : [-1.0000044107437134, -1.0000044107437134, -1.0000044107437134], "name" : "NORMAL"}, {"bufferView" : 1, "byteOffset" : 24, "componentType" : 5126, "count" : 900, "type" : "VEC2", "max" : [0.9914164543151855, 0.9902380704879761], "min" : [0.01285669207572937, 0.011219263076782227], "name" : "TEXCOORD_0"}], "asset" : {"generator" : "Aspose.3D 24.6.0", "version" : "2.0"}, "buffers" : [{"uri" : "data:application/octet-stream;base64,", "byteLength" : 30608}], "bufferViews" : [{"buffer" : 0, "byteOffset" : 0, "byteLength" : 1800, "target" : 34963}, {"buffer" : 0, "byteOffset" : 1804, "byteLength" : 28800, "byteStride" : 32, "target" : 34962}], "images" : [{"uri" : "C:/Users/morrg/Documents/Spelprojekt/Queertective 2024/building2_texture.png"}], "materials" : [{"name" : "building2_material", "pbrMetallicRoughness" : {"baseColorFactor" : [1, 1, 1, 1], "baseColorTexture" : {"index" : 0, "texCoord" : 0}, "metallicFactor" : 1, "roughnessFactor" : 1}, "emissiveFactor" : [0, 0, 0], "alphaMode" : "OPAQUE", "doubleSided" : false}], "meshes" : [{"primitives" : [{"attributes" : {"POSITION" : 1, "NORMAL" : 2, "TEXCOORD_0" : 3}, "indices" : 0, "material" : 0, "mode" : 4}], "name" : ""}], "nodes" : [{"matrix" : [0.01, 0, 0, 0, 0, 0.01, 0, 0, 0, 0, 0.01, 0, 1.9949319973733282E-17, 1.3877787807814457E-16, -0.6965974094017992, 1], "mesh" : 0, "name" : "building2"}], "samplers" : [{"magFilter" : 9729, "minFilter" : 9729, "wrapS" : 10497, "wrapT" : 10497}], "scene" : 0, "scenes" : [{"nodes" : [0]}], "textures" : [{"sampler" : 0, "source" : 0, "name" : "file3"}]}